<svg height="448pt" viewBox="0 0 448 448" width="448pt" xmlns="http://www.w3.org/2000/svg"><path d="m424 392h-16v24c0 4.417969 3.582031 8 8 8s8-3.582031 8-8zm0 0"/><path d="m448 152h-8v64c0 8.835938-7.164062 16-16 16h-16c-8.835938 0-16-7.164062-16-16v-64h-8v176h64zm0 0"/><path d="m388.945312 344 16 32h22.109376l16-32zm0 0"/><path d="m408 152h16v64h-16zm0 0"/><path d="m400 40h32v32h-32zm0 0"/><path d="m384 88h64v16h-64zm0 0"/><path d="m384 120h64v16h-64zm0 0"/><path d="m336 88c-.027344-22.082031-17.917969-39.972656-40-40h-80v8.144531c17.65625.800781 48 5.917969 48 39.855469v16c0 4.417969-3.582031 8-8 8h-176c-4.417969 0-8-3.582031-8-8v-16c0-33.9375 30.34375-39.078125 48-39.855469v-8.144531h-80c-22.082031.027344-39.9726562 17.917969-40 40v320c.0273438 22.082031 17.917969 39.972656 40 40h256c22.082031-.027344 39.972656-17.917969 40-40zm-224 288h-64v-16h64zm0-48h-64v-16h64zm0-48h-64v-16h64zm0-48h-64v-16h64zm0-48h-64v-16h64zm176 192h-144v-16h144zm0-48h-144v-16h144zm0-48h-144v-16h144zm0-48h-144v-16h144zm0-48h-144v-16h144zm0 0"/><path d="m176 32c0 4.417969-3.582031 8-8 8s-8-3.582031-8-8 3.582031-8 8-8 8 3.582031 8 8zm0 0"/><path d="m136 64c0 4.417969-3.582031 8-8 8-33.191406 0-40 9.601562-40 24v8h160v-8c0-14.398438-6.808594-24-40-24-4.417969 0-8-3.582031-8-8v-40c0-13.253906-10.746094-24-24-24h-16c-13.253906 0-24 10.746094-24 24zm32-56c13.253906 0 24 10.746094 24 24s-10.746094 24-24 24-24-10.746094-24-24 10.746094-24 24-24zm0 0"/></svg>